<mxfile host="app.diagrams.net" modified="2023-12-13T14:13:55.882Z" agent="Mozilla/5.0 (Windows NT 10.0; Win64; x64) AppleWebKit/537.36 (KHTML, like Gecko) Chrome/120.0.0.0 Safari/537.36 Edg/120.0.0.0" etag="l6cVDtgm1f4EFMc2rWUV" version="22.1.8" type="github">
  <diagram name="Page-1" id="r5DDAyiTGP4kbfGmFJZn">
    <mxGraphModel dx="2894" dy="1587" grid="1" gridSize="10" guides="1" tooltips="1" connect="1" arrows="1" fold="1" page="1" pageScale="1" pageWidth="1654" pageHeight="1169" math="0" shadow="0">
      <root>
        <mxCell id="0" />
        <mxCell id="1" parent="0" />
        <mxCell id="NuX04VF1GAud610x8VtT-14" value="NKR Rygg - OpenQreg" style="swimlane;whiteSpace=wrap;html=1;" parent="1" vertex="1">
          <mxGeometry x="60" y="620" width="1490" height="200" as="geometry" />
        </mxCell>
        <mxCell id="NuX04VF1GAud610x8VtT-13" value="1B" style="shape=note;strokeWidth=2;fontSize=14;size=20;whiteSpace=wrap;html=1;fillColor=#fff2cc;strokeColor=#d6b656;fontColor=#666600;flipV=1;" parent="NuX04VF1GAud610x8VtT-14" vertex="1">
          <mxGeometry x="1330" y="80" width="110.00000000000001" height="80" as="geometry" />
        </mxCell>
        <mxCell id="CANdXBzeu8zIZSH_3LEi-38" value="" style="group" vertex="1" connectable="0" parent="NuX04VF1GAud610x8VtT-14">
          <mxGeometry x="240" y="70" width="110" height="80" as="geometry" />
        </mxCell>
        <mxCell id="NuX04VF1GAud610x8VtT-27" value="" style="sketch=0;outlineConnect=0;fontColor=#232F3E;gradientColor=none;fillColor=#E7157B;strokeColor=none;dashed=0;verticalLabelPosition=bottom;verticalAlign=top;align=center;html=1;fontSize=12;fontStyle=0;aspect=fixed;pointerEvents=1;shape=mxgraph.aws4.automation;" parent="CANdXBzeu8zIZSH_3LEi-38" vertex="1">
          <mxGeometry x="10" y="26" width="28" height="28" as="geometry" />
        </mxCell>
        <mxCell id="CANdXBzeu8zIZSH_3LEi-43" value="" style="group" vertex="1" connectable="0" parent="CANdXBzeu8zIZSH_3LEi-38">
          <mxGeometry x="-7" width="110" height="80" as="geometry" />
        </mxCell>
        <mxCell id="CANdXBzeu8zIZSH_3LEi-44" value="2A" style="shape=note;strokeWidth=2;fontSize=14;size=20;whiteSpace=wrap;html=1;fillColor=#fff2cc;strokeColor=#d6b656;fontColor=#666600;" vertex="1" parent="CANdXBzeu8zIZSH_3LEi-43">
          <mxGeometry width="110.00000000000001" height="80" as="geometry" />
        </mxCell>
        <mxCell id="CANdXBzeu8zIZSH_3LEi-45" value="" style="sketch=0;outlineConnect=0;fontColor=#232F3E;gradientColor=none;fillColor=#E7157B;strokeColor=none;dashed=0;verticalLabelPosition=bottom;verticalAlign=top;align=center;html=1;fontSize=12;fontStyle=0;aspect=fixed;pointerEvents=1;shape=mxgraph.aws4.automation;" vertex="1" parent="CANdXBzeu8zIZSH_3LEi-43">
          <mxGeometry x="10" y="26" width="28" height="28" as="geometry" />
        </mxCell>
        <mxCell id="CANdXBzeu8zIZSH_3LEi-39" value="" style="group" vertex="1" connectable="0" parent="NuX04VF1GAud610x8VtT-14">
          <mxGeometry x="390" y="70" width="110" height="80" as="geometry" />
        </mxCell>
        <mxCell id="NuX04VF1GAud610x8VtT-9" value="Be" style="shape=note;strokeWidth=2;fontSize=14;size=20;whiteSpace=wrap;html=1;fillColor=#fff2cc;strokeColor=#d6b656;fontColor=#666600;flipV=1;" parent="CANdXBzeu8zIZSH_3LEi-39" vertex="1">
          <mxGeometry width="110.00000000000001" height="80" as="geometry" />
        </mxCell>
        <mxCell id="NuX04VF1GAud610x8VtT-28" value="" style="sketch=0;outlineConnect=0;fontColor=#232F3E;gradientColor=none;fillColor=#E7157B;strokeColor=none;dashed=0;verticalLabelPosition=bottom;verticalAlign=top;align=center;html=1;fontSize=12;fontStyle=0;aspect=fixed;pointerEvents=1;shape=mxgraph.aws4.automation;" parent="CANdXBzeu8zIZSH_3LEi-39" vertex="1">
          <mxGeometry x="10" y="26" width="28" height="28" as="geometry" />
        </mxCell>
        <mxCell id="CANdXBzeu8zIZSH_3LEi-40" value="" style="group" vertex="1" connectable="0" parent="NuX04VF1GAud610x8VtT-14">
          <mxGeometry x="80" y="70" width="110" height="80" as="geometry" />
        </mxCell>
        <mxCell id="NuX04VF1GAud610x8VtT-3" value="1A" style="shape=note;strokeWidth=2;fontSize=14;size=20;whiteSpace=wrap;html=1;fillColor=#fff2cc;strokeColor=#d6b656;fontColor=#666600;" parent="CANdXBzeu8zIZSH_3LEi-40" vertex="1">
          <mxGeometry width="110.00000000000001" height="80" as="geometry" />
        </mxCell>
        <mxCell id="NuX04VF1GAud610x8VtT-26" value="" style="sketch=0;outlineConnect=0;fontColor=#232F3E;gradientColor=none;fillColor=#E7157B;strokeColor=none;dashed=0;verticalLabelPosition=bottom;verticalAlign=top;align=center;html=1;fontSize=12;fontStyle=0;aspect=fixed;pointerEvents=1;shape=mxgraph.aws4.automation;" parent="CANdXBzeu8zIZSH_3LEi-40" vertex="1">
          <mxGeometry x="10" y="26" width="28" height="28" as="geometry" />
        </mxCell>
        <mxCell id="CANdXBzeu8zIZSH_3LEi-48" value="" style="group" vertex="1" connectable="0" parent="NuX04VF1GAud610x8VtT-14">
          <mxGeometry x="942" y="80" width="110" height="80" as="geometry" />
        </mxCell>
        <mxCell id="CANdXBzeu8zIZSH_3LEi-49" value="" style="sketch=0;outlineConnect=0;fontColor=#232F3E;gradientColor=none;fillColor=#E7157B;strokeColor=none;dashed=0;verticalLabelPosition=bottom;verticalAlign=top;align=center;html=1;fontSize=12;fontStyle=0;aspect=fixed;pointerEvents=1;shape=mxgraph.aws4.automation;" vertex="1" parent="CANdXBzeu8zIZSH_3LEi-48">
          <mxGeometry x="10" y="26" width="28" height="28" as="geometry" />
        </mxCell>
        <mxCell id="CANdXBzeu8zIZSH_3LEi-50" value="" style="group" vertex="1" connectable="0" parent="CANdXBzeu8zIZSH_3LEi-48">
          <mxGeometry x="-7" width="110" height="80" as="geometry" />
        </mxCell>
        <mxCell id="CANdXBzeu8zIZSH_3LEi-51" value="2A" style="shape=note;strokeWidth=2;fontSize=14;size=20;whiteSpace=wrap;html=1;fillColor=#fff2cc;strokeColor=#d6b656;fontColor=#666600;" vertex="1" parent="CANdXBzeu8zIZSH_3LEi-50">
          <mxGeometry width="110.00000000000001" height="80" as="geometry" />
        </mxCell>
        <mxCell id="CANdXBzeu8zIZSH_3LEi-52" value="" style="sketch=0;outlineConnect=0;fontColor=#232F3E;gradientColor=none;fillColor=#E7157B;strokeColor=none;dashed=0;verticalLabelPosition=bottom;verticalAlign=top;align=center;html=1;fontSize=12;fontStyle=0;aspect=fixed;pointerEvents=1;shape=mxgraph.aws4.automation;" vertex="1" parent="CANdXBzeu8zIZSH_3LEi-50">
          <mxGeometry x="10" y="26" width="28" height="28" as="geometry" />
        </mxCell>
        <mxCell id="CANdXBzeu8zIZSH_3LEi-53" value="" style="group" vertex="1" connectable="0" parent="NuX04VF1GAud610x8VtT-14">
          <mxGeometry x="1080" y="80" width="110" height="80" as="geometry" />
        </mxCell>
        <mxCell id="CANdXBzeu8zIZSH_3LEi-54" value="Be" style="shape=note;strokeWidth=2;fontSize=14;size=20;whiteSpace=wrap;html=1;fillColor=#fff2cc;strokeColor=#d6b656;fontColor=#666600;flipV=1;" vertex="1" parent="CANdXBzeu8zIZSH_3LEi-53">
          <mxGeometry width="110.00000000000001" height="80" as="geometry" />
        </mxCell>
        <mxCell id="CANdXBzeu8zIZSH_3LEi-55" value="" style="sketch=0;outlineConnect=0;fontColor=#232F3E;gradientColor=none;fillColor=#E7157B;strokeColor=none;dashed=0;verticalLabelPosition=bottom;verticalAlign=top;align=center;html=1;fontSize=12;fontStyle=0;aspect=fixed;pointerEvents=1;shape=mxgraph.aws4.automation;" vertex="1" parent="CANdXBzeu8zIZSH_3LEi-53">
          <mxGeometry x="10" y="26" width="28" height="28" as="geometry" />
        </mxCell>
        <mxCell id="CANdXBzeu8zIZSH_3LEi-56" value="" style="group" vertex="1" connectable="0" parent="NuX04VF1GAud610x8VtT-14">
          <mxGeometry x="790" y="80" width="110" height="80" as="geometry" />
        </mxCell>
        <mxCell id="CANdXBzeu8zIZSH_3LEi-57" value="1A" style="shape=note;strokeWidth=2;fontSize=14;size=20;whiteSpace=wrap;html=1;fillColor=#fff2cc;strokeColor=#d6b656;fontColor=#666600;" vertex="1" parent="CANdXBzeu8zIZSH_3LEi-56">
          <mxGeometry width="110.00000000000001" height="80" as="geometry" />
        </mxCell>
        <mxCell id="CANdXBzeu8zIZSH_3LEi-58" value="" style="sketch=0;outlineConnect=0;fontColor=#232F3E;gradientColor=none;fillColor=#E7157B;strokeColor=none;dashed=0;verticalLabelPosition=bottom;verticalAlign=top;align=center;html=1;fontSize=12;fontStyle=0;aspect=fixed;pointerEvents=1;shape=mxgraph.aws4.automation;" vertex="1" parent="CANdXBzeu8zIZSH_3LEi-56">
          <mxGeometry x="10" y="26" width="28" height="28" as="geometry" />
        </mxCell>
        <mxCell id="CANdXBzeu8zIZSH_3LEi-87" value="" style="sketch=0;outlineConnect=0;fontColor=#232F3E;gradientColor=none;fillColor=#E7157B;strokeColor=none;dashed=0;verticalLabelPosition=bottom;verticalAlign=top;align=center;html=1;fontSize=12;fontStyle=0;aspect=fixed;pointerEvents=1;shape=mxgraph.aws4.automation;" vertex="1" parent="NuX04VF1GAud610x8VtT-14">
          <mxGeometry x="1340" y="106" width="28" height="28" as="geometry" />
        </mxCell>
        <mxCell id="NuX04VF1GAud610x8VtT-15" value="DIPS POL" style="swimlane;whiteSpace=wrap;html=1;" parent="1" vertex="1">
          <mxGeometry x="253" y="210" width="203.75" height="240" as="geometry" />
        </mxCell>
        <mxCell id="NuX04VF1GAud610x8VtT-22" value="" style="group" parent="NuX04VF1GAud610x8VtT-15" vertex="1" connectable="0">
          <mxGeometry x="40" y="90" width="123.75" height="90" as="geometry" />
        </mxCell>
        <mxCell id="NuX04VF1GAud610x8VtT-6" value="2A" style="shape=note;strokeWidth=2;fontSize=14;size=20;whiteSpace=wrap;html=1;fillColor=#fff2cc;strokeColor=#d6b656;fontColor=#666600;" parent="NuX04VF1GAud610x8VtT-22" vertex="1">
          <mxGeometry width="123.75" height="90" as="geometry" />
        </mxCell>
        <mxCell id="NuX04VF1GAud610x8VtT-19" value="Kliniker" style="shape=umlActor;verticalLabelPosition=bottom;verticalAlign=top;html=1;outlineConnect=0;" parent="NuX04VF1GAud610x8VtT-22" vertex="1">
          <mxGeometry x="17.5" y="15" width="22.5" height="50" as="geometry" />
        </mxCell>
        <mxCell id="NuX04VF1GAud610x8VtT-23" value="" style="group" parent="1" vertex="1" connectable="0">
          <mxGeometry x="70" y="300" width="123.75" height="90" as="geometry" />
        </mxCell>
        <mxCell id="CANdXBzeu8zIZSH_3LEi-19" style="edgeStyle=orthogonalEdgeStyle;rounded=0;orthogonalLoop=1;jettySize=auto;html=1;" edge="1" parent="NuX04VF1GAud610x8VtT-23" source="NuX04VF1GAud610x8VtT-24">
          <mxGeometry relative="1" as="geometry">
            <mxPoint x="180" y="45" as="targetPoint" />
          </mxGeometry>
        </mxCell>
        <mxCell id="NuX04VF1GAud610x8VtT-24" value="1A" style="shape=note;strokeWidth=2;fontSize=14;size=20;whiteSpace=wrap;html=1;fillColor=#fff2cc;strokeColor=#d6b656;fontColor=#666600;" parent="NuX04VF1GAud610x8VtT-23" vertex="1">
          <mxGeometry width="123.75" height="90" as="geometry" />
        </mxCell>
        <mxCell id="NuX04VF1GAud610x8VtT-25" value="Pasient" style="shape=umlActor;verticalLabelPosition=bottom;verticalAlign=top;html=1;outlineConnect=0;" parent="NuX04VF1GAud610x8VtT-23" vertex="1">
          <mxGeometry x="17.5" y="15" width="22.5" height="50" as="geometry" />
        </mxCell>
        <mxCell id="CANdXBzeu8zIZSH_3LEi-10" value="KI - Beslutningsstøtte (Be)" style="image;aspect=fixed;html=1;points=[];align=center;fontSize=12;image=img/lib/azure2/ai_machine_learning/Batch_AI.svg;" vertex="1" parent="1">
          <mxGeometry x="328" y="60" width="48" height="68" as="geometry" />
        </mxCell>
        <mxCell id="CANdXBzeu8zIZSH_3LEi-31" value="" style="endArrow=classic;html=1;rounded=0;edgeStyle=orthogonalEdgeStyle;exitX=0.354;exitY=0;exitDx=0;exitDy=0;exitPerimeter=0;" edge="1" parent="1" source="NuX04VF1GAud610x8VtT-15">
          <mxGeometry relative="1" as="geometry">
            <mxPoint x="328.00000000000017" y="209.5000000000001" as="sourcePoint" />
            <mxPoint x="324.91" y="149.5" as="targetPoint" />
            <Array as="points">
              <mxPoint x="325" y="210" />
            </Array>
          </mxGeometry>
        </mxCell>
        <mxCell id="CANdXBzeu8zIZSH_3LEi-32" value="Input" style="edgeLabel;resizable=0;html=1;align=center;verticalAlign=middle;" connectable="0" vertex="1" parent="CANdXBzeu8zIZSH_3LEi-31">
          <mxGeometry relative="1" as="geometry" />
        </mxCell>
        <mxCell id="CANdXBzeu8zIZSH_3LEi-33" value="" style="endArrow=classic;html=1;rounded=0;edgeStyle=orthogonalEdgeStyle;entryX=0.589;entryY=0;entryDx=0;entryDy=0;entryPerimeter=0;" edge="1" parent="1" target="NuX04VF1GAud610x8VtT-15">
          <mxGeometry relative="1" as="geometry">
            <mxPoint x="373" y="150" as="sourcePoint" />
            <mxPoint x="370" y="200" as="targetPoint" />
            <Array as="points">
              <mxPoint x="373" y="150" />
            </Array>
          </mxGeometry>
        </mxCell>
        <mxCell id="CANdXBzeu8zIZSH_3LEi-34" value="Be" style="edgeLabel;resizable=0;html=1;align=center;verticalAlign=middle;" connectable="0" vertex="1" parent="CANdXBzeu8zIZSH_3LEi-33">
          <mxGeometry relative="1" as="geometry" />
        </mxCell>
        <mxCell id="CANdXBzeu8zIZSH_3LEi-42" style="edgeStyle=orthogonalEdgeStyle;rounded=0;orthogonalLoop=1;jettySize=auto;html=1;entryX=0.5;entryY=0;entryDx=0;entryDy=0;entryPerimeter=0;" edge="1" parent="1" source="NuX04VF1GAud610x8VtT-15">
          <mxGeometry relative="1" as="geometry">
            <mxPoint x="355.0000000000002" y="690" as="targetPoint" />
          </mxGeometry>
        </mxCell>
        <mxCell id="CANdXBzeu8zIZSH_3LEi-46" style="edgeStyle=orthogonalEdgeStyle;rounded=0;orthogonalLoop=1;jettySize=auto;html=1;entryX=0.5;entryY=1;entryDx=0;entryDy=0;entryPerimeter=0;" edge="1" parent="1" source="NuX04VF1GAud610x8VtT-15" target="NuX04VF1GAud610x8VtT-9">
          <mxGeometry relative="1" as="geometry" />
        </mxCell>
        <mxCell id="CANdXBzeu8zIZSH_3LEi-47" style="edgeStyle=orthogonalEdgeStyle;rounded=0;orthogonalLoop=1;jettySize=auto;html=1;entryX=0.464;entryY=-0.012;entryDx=0;entryDy=0;entryPerimeter=0;" edge="1" parent="1" source="NuX04VF1GAud610x8VtT-15" target="NuX04VF1GAud610x8VtT-3">
          <mxGeometry relative="1" as="geometry">
            <Array as="points">
              <mxPoint x="355" y="570" />
              <mxPoint x="191" y="570" />
            </Array>
          </mxGeometry>
        </mxCell>
        <mxCell id="CANdXBzeu8zIZSH_3LEi-59" value="DIPS POL" style="swimlane;whiteSpace=wrap;html=1;" vertex="1" parent="1">
          <mxGeometry x="853" y="210" width="387" height="240" as="geometry" />
        </mxCell>
        <mxCell id="CANdXBzeu8zIZSH_3LEi-60" value="" style="group" vertex="1" connectable="0" parent="CANdXBzeu8zIZSH_3LEi-59">
          <mxGeometry x="40" y="90" width="123.75" height="90" as="geometry" />
        </mxCell>
        <mxCell id="CANdXBzeu8zIZSH_3LEi-61" value="2A2" style="shape=note;strokeWidth=2;fontSize=14;size=20;whiteSpace=wrap;html=1;fillColor=#fff2cc;strokeColor=#d6b656;fontColor=#666600;" vertex="1" parent="CANdXBzeu8zIZSH_3LEi-60">
          <mxGeometry width="123.75" height="90" as="geometry" />
        </mxCell>
        <mxCell id="CANdXBzeu8zIZSH_3LEi-62" value="Kliniker" style="shape=umlActor;verticalLabelPosition=bottom;verticalAlign=top;html=1;outlineConnect=0;" vertex="1" parent="CANdXBzeu8zIZSH_3LEi-60">
          <mxGeometry x="17.5" y="15" width="22.5" height="50" as="geometry" />
        </mxCell>
        <mxCell id="CANdXBzeu8zIZSH_3LEi-76" value="" style="group" vertex="1" connectable="0" parent="CANdXBzeu8zIZSH_3LEi-59">
          <mxGeometry x="197" y="90" width="123.75" height="90" as="geometry" />
        </mxCell>
        <mxCell id="CANdXBzeu8zIZSH_3LEi-77" value="2B" style="shape=note;strokeWidth=2;fontSize=14;size=20;whiteSpace=wrap;html=1;fillColor=#fff2cc;strokeColor=#d6b656;fontColor=#666600;" vertex="1" parent="CANdXBzeu8zIZSH_3LEi-76">
          <mxGeometry width="123.75" height="90" as="geometry" />
        </mxCell>
        <mxCell id="CANdXBzeu8zIZSH_3LEi-78" value="Kliniker" style="shape=umlActor;verticalLabelPosition=bottom;verticalAlign=top;html=1;outlineConnect=0;" vertex="1" parent="CANdXBzeu8zIZSH_3LEi-76">
          <mxGeometry x="17.5" y="15" width="22.5" height="50" as="geometry" />
        </mxCell>
        <mxCell id="CANdXBzeu8zIZSH_3LEi-63" value="" style="group" vertex="1" connectable="0" parent="1">
          <mxGeometry x="670" y="300" width="123.75" height="90" as="geometry" />
        </mxCell>
        <mxCell id="CANdXBzeu8zIZSH_3LEi-64" style="edgeStyle=orthogonalEdgeStyle;rounded=0;orthogonalLoop=1;jettySize=auto;html=1;" edge="1" parent="CANdXBzeu8zIZSH_3LEi-63" source="CANdXBzeu8zIZSH_3LEi-65">
          <mxGeometry relative="1" as="geometry">
            <mxPoint x="180" y="45" as="targetPoint" />
          </mxGeometry>
        </mxCell>
        <mxCell id="CANdXBzeu8zIZSH_3LEi-65" value="1A2" style="shape=note;strokeWidth=2;fontSize=14;size=20;whiteSpace=wrap;html=1;fillColor=#fff2cc;strokeColor=#d6b656;fontColor=#666600;" vertex="1" parent="CANdXBzeu8zIZSH_3LEi-63">
          <mxGeometry width="123.75" height="90" as="geometry" />
        </mxCell>
        <mxCell id="CANdXBzeu8zIZSH_3LEi-66" value="Pasient" style="shape=umlActor;verticalLabelPosition=bottom;verticalAlign=top;html=1;outlineConnect=0;" vertex="1" parent="CANdXBzeu8zIZSH_3LEi-63">
          <mxGeometry x="17.5" y="15" width="22.5" height="50" as="geometry" />
        </mxCell>
        <mxCell id="CANdXBzeu8zIZSH_3LEi-67" value="KI - Beslutningsstøtte (Be)" style="image;aspect=fixed;html=1;points=[];align=center;fontSize=12;image=img/lib/azure2/ai_machine_learning/Batch_AI.svg;" vertex="1" parent="1">
          <mxGeometry x="1040" y="50" width="48" height="68" as="geometry" />
        </mxCell>
        <mxCell id="CANdXBzeu8zIZSH_3LEi-68" value="" style="endArrow=classic;html=1;rounded=0;edgeStyle=orthogonalEdgeStyle;exitX=0.354;exitY=0;exitDx=0;exitDy=0;exitPerimeter=0;" edge="1" parent="1">
          <mxGeometry relative="1" as="geometry">
            <mxPoint x="1105.108" y="210" as="sourcePoint" />
            <mxPoint x="1040.02" y="149.5" as="targetPoint" />
            <Array as="points">
              <mxPoint x="1040.11" y="210" />
            </Array>
          </mxGeometry>
        </mxCell>
        <mxCell id="CANdXBzeu8zIZSH_3LEi-69" value="Input" style="edgeLabel;resizable=0;html=1;align=center;verticalAlign=middle;" connectable="0" vertex="1" parent="CANdXBzeu8zIZSH_3LEi-68">
          <mxGeometry relative="1" as="geometry">
            <mxPoint x="-2" y="-30" as="offset" />
          </mxGeometry>
        </mxCell>
        <mxCell id="CANdXBzeu8zIZSH_3LEi-70" value="" style="endArrow=classic;html=1;rounded=0;edgeStyle=orthogonalEdgeStyle;entryX=0.589;entryY=0;entryDx=0;entryDy=0;entryPerimeter=0;" edge="1" parent="1" target="CANdXBzeu8zIZSH_3LEi-59">
          <mxGeometry relative="1" as="geometry">
            <mxPoint x="1081" y="150" as="sourcePoint" />
            <mxPoint x="970" y="200" as="targetPoint" />
            <Array as="points">
              <mxPoint x="1081" y="150" />
            </Array>
          </mxGeometry>
        </mxCell>
        <mxCell id="CANdXBzeu8zIZSH_3LEi-71" value="Be" style="edgeLabel;resizable=0;html=1;align=center;verticalAlign=middle;" connectable="0" vertex="1" parent="CANdXBzeu8zIZSH_3LEi-70">
          <mxGeometry relative="1" as="geometry" />
        </mxCell>
        <mxCell id="CANdXBzeu8zIZSH_3LEi-79" style="edgeStyle=orthogonalEdgeStyle;rounded=0;orthogonalLoop=1;jettySize=auto;html=1;entryX=0.471;entryY=-0.002;entryDx=0;entryDy=0;entryPerimeter=0;exitX=0.5;exitY=1;exitDx=0;exitDy=0;" edge="1" parent="1" source="CANdXBzeu8zIZSH_3LEi-59" target="CANdXBzeu8zIZSH_3LEi-51">
          <mxGeometry relative="1" as="geometry">
            <mxPoint x="1020.004285714286" y="450" as="sourcePoint" />
            <mxPoint x="1051.49" y="700" as="targetPoint" />
          </mxGeometry>
        </mxCell>
        <mxCell id="CANdXBzeu8zIZSH_3LEi-81" style="edgeStyle=orthogonalEdgeStyle;rounded=0;orthogonalLoop=1;jettySize=auto;html=1;entryX=0;entryY=0;entryDx=45.00000000000001;entryDy=0;entryPerimeter=0;" edge="1" parent="1" source="CANdXBzeu8zIZSH_3LEi-59" target="CANdXBzeu8zIZSH_3LEi-57">
          <mxGeometry relative="1" as="geometry" />
        </mxCell>
        <mxCell id="CANdXBzeu8zIZSH_3LEi-82" style="edgeStyle=orthogonalEdgeStyle;rounded=0;orthogonalLoop=1;jettySize=auto;html=1;entryX=0.434;entryY=1.002;entryDx=0;entryDy=0;entryPerimeter=0;" edge="1" parent="1" source="CANdXBzeu8zIZSH_3LEi-59" target="CANdXBzeu8zIZSH_3LEi-54">
          <mxGeometry relative="1" as="geometry" />
        </mxCell>
        <mxCell id="CANdXBzeu8zIZSH_3LEi-83" value="" style="group" vertex="1" connectable="0" parent="1">
          <mxGeometry x="1390" y="850" width="123.75" height="90" as="geometry" />
        </mxCell>
        <mxCell id="CANdXBzeu8zIZSH_3LEi-85" value="ePROM" style="shape=note;strokeWidth=2;fontSize=14;size=20;whiteSpace=wrap;html=1;fillColor=#fff2cc;strokeColor=#d6b656;fontColor=#666600;" vertex="1" parent="CANdXBzeu8zIZSH_3LEi-83">
          <mxGeometry width="123.75" height="90" as="geometry" />
        </mxCell>
        <mxCell id="CANdXBzeu8zIZSH_3LEi-86" value="Pasient" style="shape=umlActor;verticalLabelPosition=bottom;verticalAlign=top;html=1;outlineConnect=0;" vertex="1" parent="CANdXBzeu8zIZSH_3LEi-83">
          <mxGeometry x="17.5" y="15" width="22.5" height="50" as="geometry" />
        </mxCell>
        <mxCell id="CANdXBzeu8zIZSH_3LEi-89" style="edgeStyle=orthogonalEdgeStyle;rounded=0;orthogonalLoop=1;jettySize=auto;html=1;entryX=0.556;entryY=-0.028;entryDx=0;entryDy=0;entryPerimeter=0;" edge="1" parent="1" source="CANdXBzeu8zIZSH_3LEi-85" target="NuX04VF1GAud610x8VtT-13">
          <mxGeometry relative="1" as="geometry" />
        </mxCell>
        <mxCell id="CANdXBzeu8zIZSH_3LEi-93" value="" style="shape=singleArrow;whiteSpace=wrap;html=1;" vertex="1" parent="1">
          <mxGeometry x="470" y="318.75" width="180" height="52.5" as="geometry" />
        </mxCell>
        <mxCell id="CANdXBzeu8zIZSH_3LEi-94" value="2uker" style="text;strokeColor=none;fillColor=none;html=1;fontSize=24;fontStyle=1;verticalAlign=middle;align=center;" vertex="1" parent="1">
          <mxGeometry x="490" y="290" width="100" height="40" as="geometry" />
        </mxCell>
      </root>
    </mxGraphModel>
  </diagram>
</mxfile>
